<?xml version="1.0" standalone="yes"?>

<svg version="1.1" viewBox="0.0 0.0 278.0 100.0" fill="none" stroke="none" stroke-linecap="square" stroke-miterlimit="10" xmlns="http://www.w3.org/2000/svg" xmlns:xlink="http://www.w3.org/1999/xlink"><clipPath id="p.0"><path d="m0 0l278.0 0l0 100.0l-278.0 0l0 -100.0z" clip-rule="nonzero"></path></clipPath><g clip-path="url(#p.0)"><path fill="#000000" fill-opacity="0.0" d="m0 0l278.99738 0l0 100.0l-278.99738 0z" fill-rule="nonzero"></path><path fill="#000000" fill-opacity="0.0" d="m-10.223097 16.766405l144.0 0l0 48.0l-144.0 0z" fill-rule="nonzero"></path><path fill="#8ec5f1" d="m18.14445 32.297653q5.03125 -3.203123 11.671875 -3.203123q2.953123 0 5.359373 0.765625q2.40625 0.75 4.125 2.640623q1.71875 1.875 2.640625 5.109375q0.921875 3.234375 0.921875 8.125q0 8.078125 -1.09375 13.0q-1.078125 4.921875 -2.84375 7.5625q-1.75 2.640625 -3.875 3.515625q-2.109375 0.875 -4.109373 0.875q-2.25 0 -3.84375 -0.6875q-1.59375 -0.671875 -2.484375 -1.546875l0 16.640625q-0.796875 0.3125 -1.6875 0.4375q-0.875 0.125 -1.671875 0.125q-1.671875 0 -2.390625 -0.609375q-0.71875 -0.59375 -0.71875 -2.203125l0 -50.546875zm6.46875 29.90625q0.890625 1.375 2.0 2.015625q1.125 0.625 2.328125 0.625q0.953125 0 2.109375 -0.515625q1.1718731 -0.515625 2.171873 -2.4375q1.0 -1.921875 1.71875 -5.5625q0.71875 -3.640625 0.71875 -9.875q0 -3.609375 -0.40625 -5.84375q-0.390625 -2.234375 -1.15625 -3.546875q-0.765625 -1.328125 -1.921875 -1.8125q-1.1562481 -0.484375 -2.671873 -0.484375q-2.734375 0 -4.890625 1.53125l0 25.90625zm25.202467 -31.265623q-0.5625 -1.28125 -0.6875 -2.59375q-0.109375 -1.328125 -0.109375 -2.21875q0 -0.71875 1.109375 -1.46875q1.125 -0.765625 3.046875 -1.359375q1.921875 -0.609375 4.515625 -1.0q2.609375 -0.40625 5.484375 -0.40625q3.4375 0 5.71875 0.71875q2.28125 0.71875 3.640625 2.125q1.359375 1.390625 1.921875 3.390625q0.5625 2.0 0.5625 4.640623q0 4.171875 -1.890625 7.859375q-1.875 3.671875 -4.71875 7.265625q-2.828125 3.59375 -6.1875 7.4375q-3.359375 3.84375 -6.25 8.40625l10.71875 0q1.609375 0 3.28125 -0.03125q1.6875 -0.046875 3.046875 -0.21875q1.59375 -0.15625 3.125 -0.3125q0 3.671875 -0.171875 5.203125q-0.15625 1.515625 -1.1875 1.515625l-27.125 0q-0.15625 -0.484375 -0.203125 -1.078125q-0.046875 -0.609375 -0.046875 -0.921875q0 -0.796875 0.078125 -1.4375q0.09375 -0.640625 0.328125 -1.234375q0.234375 -0.609375 0.59375 -1.328125q0.375 -0.71875 0.921875 -1.6875q2.640625 -4.390625 5.84375 -8.140625q3.203125 -3.765625 5.953125 -7.203125q2.765625 -3.453125 4.640625 -6.640625q1.890625 -3.203125 1.890625 -6.5625q0 -2.562498 -1.40625 -4.046873q-1.390625 -1.484375 -4.75 -1.484375q-3.125 0 -6.40625 0.8125q-3.28125 0.796875 -5.28125 2.0zm32.32872 1.3593731q5.03125 -3.203123 11.671875 -3.203123q2.953125 0 5.359375 0.765625q2.40625 0.75 4.125 2.640623q1.71875 1.875 2.640625 5.109375q0.921875 3.234375 0.921875 8.125q0 8.078125 -1.09375 13.0q-1.078125 4.921875 -2.84375 7.5625q-1.75 2.640625 -3.875 3.515625q-2.109375 0.875 -4.109375 0.875q-2.25 0 -3.84375 -0.6875q-1.59375 -0.671875 -2.484375 -1.546875l0 16.640625q-0.796875 0.3125 -1.6875 0.4375q-0.875 0.125 -1.671875 0.125q-1.671875 0 -2.390625 -0.609375q-0.71875 -0.59375 -0.71875 -2.203125l0 -50.546875zm6.46875 29.90625q0.890625 1.375 2.0 2.015625q1.125 0.625 2.328125 0.625q0.953125 0 2.109375 -0.515625q1.171875 -0.515625 2.171875 -2.4375q1.0 -1.921875 1.71875 -5.5625q0.71875 -3.640625 0.71875 -9.875q0 -3.609375 -0.40625 -5.84375q-0.390625 -2.234375 -1.15625 -3.546875q-0.765625 -1.328125 -1.921875 -1.8125q-1.15625 -0.484375 -2.671875 -0.484375q-2.734375 0 -4.890625 1.53125l0 25.90625z" fill-rule="nonzero"></path><path fill="#000000" fill-opacity="0.0" d="m92.75853 6.438845l184.56694 0l0 66.33071l-184.56694 0z" fill-rule="nonzero"></path><path fill="#f7f5f5" d="m115.00769 12.963575q0 -1.109375 0.234375 -1.75q0.234375 -0.640625 0.953125 -0.921875q0.734375 -0.28125 2.0 -0.3125q1.28125 -0.046875 3.28125 -0.046875l0 20.796875q1.609375 -1.359375 3.6875 -2.078125q2.078125 -0.71875 4.875 -0.71875q2.40625 0 4.234375 0.84375q1.84375 0.828125 3.046875 2.671875q1.203125 1.8437519 1.84375 4.843752q0.640625 3.0 0.640625 7.390625q0 8.640625 -1.484375 13.765625q-1.484375 5.125 -3.765625 7.8125q-2.265625 2.671875 -5.0 3.46875q-2.71875 0.796875 -5.1875 0.796875q-6.328125 0 -9.359375 -2.390625l0 -54.171875zm6.46875 49.765625q0.5625 0.40625 1.484375 0.734375q0.921875 0.3125 2.28125 0.3125q1.046875 0 2.3125 -0.640625q1.28125 -0.640625 2.359375 -2.59375q1.09375 -1.96875 1.84375 -5.640625q0.765625 -3.6875 0.765625 -9.765625q0 -6.40625 -1.359375 -8.875q-1.359375 -2.484375 -4.078125 -2.484375q-3.125 0 -5.609375 2.234375l0 26.71875zm22.327469 -14.0q0 -10.953125 3.46875 -15.875q3.484375 -4.921877 9.8125 -4.921877q3.109375 0 5.46875 0.921875q2.375 0.921875 3.890625 3.281252q1.515625 2.359375 2.265625 6.328125q0.765625 3.953125 0.765625 10.03125q0 11.1875 -3.359375 16.109375q-3.359375 4.921875 -9.75 4.921875q-3.125 0 -5.453125 -0.71875q-2.3125 -0.71875 -3.921875 -2.921875q-1.59375 -2.203125 -2.390625 -6.3125q-0.796875 -4.125 -0.796875 -10.84375zm7.03125 0.15625q0 4.96875 0.359375 7.9375q0.375 2.953125 1.09375 4.546875q0.71875 1.59375 1.796875 2.125q1.078125 0.515625 2.4375 0.515625q1.28125 0 2.359375 -0.640625q1.078125 -0.640625 1.875 -2.390625q0.8125 -1.765625 1.25 -4.71875q0.4375 -2.96875 0.4375 -7.6875q0 -4.796875 -0.359375 -7.71875q-0.359375 -2.921875 -1.046875 -4.515625q-0.671875 -1.609375 -1.71875 -2.171875q-1.03125 -0.5625 -2.484375 -0.5625q-1.359375 0 -2.4375 0.640625q-1.078125 0.640625 -1.875 2.328125q-0.796875 1.671875 -1.25 4.671875q-0.4375 3.0 -0.4375 7.640625zm22.408722 -0.15625q0 -10.953125 3.46875 -15.875q3.484375 -4.921877 9.8125 -4.921877q3.109375 0 5.46875 0.921875q2.375 0.921875 3.890625 3.281252q1.515625 2.359375 2.265625 6.328125q0.765625 3.953125 0.765625 10.03125q0 11.1875 -3.359375 16.109375q-3.359375 4.921875 -9.75 4.921875q-3.125 0 -5.453125 -0.71875q-2.3125 -0.71875 -3.921875 -2.921875q-1.59375 -2.203125 -2.390625 -6.3125q-0.796875 -4.125 -0.796875 -10.84375zm7.03125 0.15625q0 4.96875 0.359375 7.9375q0.375 2.953125 1.09375 4.546875q0.71875 1.59375 1.796875 2.125q1.078125 0.515625 2.4375 0.515625q1.28125 0 2.359375 -0.640625q1.078125 -0.640625 1.875 -2.390625q0.8125 -1.765625 1.25 -4.71875q0.4375 -2.96875 0.4375 -7.6875q0 -4.796875 -0.359375 -7.71875q-0.359375 -2.921875 -1.046875 -4.515625q-0.671875 -1.609375 -1.71875 -2.171875q-1.03125 -0.5625 -2.484375 -0.5625q-1.359375 0 -2.4375 0.640625q-1.078125 0.640625 -1.875 2.328125q-0.796875 1.671875 -1.25 4.671875q-0.4375 3.0 -0.4375 7.640625zm24.174347 -36.0q0 -1.109375 0.265625 -1.703125q0.28125 -0.609375 1.0 -0.890625q0.734375 -0.28125 2.0 -0.3125q1.28125 -0.046875 3.28125 -0.046875l0 21.671875q2.0 -1.671875 4.71875 -2.671875q2.734375 -1.0 5.28125 -1.0q2.0 0 3.28125 0.5625q1.28125 0.546875 2.078125 1.515625q0.8125 0.953125 1.125 2.203127q0.328125 1.234375 0.328125 2.59375q0 2.484375 -0.765625 4.53125q-0.765625 2.03125 -1.8125 3.59375q-1.03125 1.5625 -2.1875 2.640625q-1.15625 1.078125 -1.875 1.640625q2.875 1.28125 5.15625 4.640625q2.28125 3.359375 2.75 8.875q0.09375 0.640625 0.09375 1.28125q0 0.640625 0 1.359375q0 1.921875 -0.25 4.078125q-0.078125 0.484375 -0.203125 0.765625q-0.109375 0.28125 -0.828125 0.40625q-0.71875 0.109375 -2.171875 0.109375q-1.4375 0 -4.15625 0q0.15625 -1.359375 0.234375 -2.640625q0.09375 -1.28125 0.09375 -2.484375q0 -1.359375 -0.125 -2.46875q-0.125 -1.125 -0.28125 -2.25q-0.71875 -4.796875 -2.6875 -6.75q-1.953125 -1.96875 -4.265625 -1.484375q-0.5625 0.15625 -1.171875 0.40625q-0.59375 0.234375 -1.15625 0.46875q-0.640625 0.328125 -1.203125 0.640625l0 15.28125q0 0.484375 -0.078125 0.765625q-0.078125 0.28125 -0.6875 0.40625q-0.59375 0.109375 -1.953125 0.109375q-1.359375 0 -3.828125 0l0 -55.84375zm16.15625 24.156252q0 -3.265625 -2.96875 -3.265625q-1.59375 0 -3.3125 0.953125q-1.71875 0.953125 -3.328125 2.875l0 9.921875q4.171875 -1.671875 6.890625 -4.1875q2.71875 -2.53125 2.71875 -6.296875zm26.15184 -9.109377q3.125 0 5.078125 0.484375q1.96875 0.46875 3.078125 1.15625q1.125 0.671875 1.515625 1.484375q0.40625 0.796875 0.40625 1.3593769q0 1.671875 -1.4375 3.265625q-3.4375 -2.078125 -7.84375 -2.078125q-2.796875 0 -4.5625 1.0q-1.75 1.0 -1.75 2.84375q0 1.125 0.5625 2.203125q0.5625 1.078125 2.640625 2.765625l7.4375 6.0q2.5625 2.546875 3.640625 4.75q1.078125 2.203125 1.078125 5.25q0 5.359375 -3.53125 8.234375q-3.515625 2.875 -9.671875 2.875q-4.3125 0 -7.03125 -1.0q-2.71875 -1.0 -2.71875 -3.078125q0 -0.71875 0.234375 -1.671875q0.234375 -0.96875 0.875 -2.09375q3.4375 2.0 8.0 2.0q3.046875 0 4.765625 -1.265625q1.71875 -1.28125 1.71875 -3.6875q0 -1.59375 -0.6875 -3.109375q-0.671875 -1.53125 -2.515625 -3.125l-7.75 -6.640625q-2.734375 -2.25 -3.65625 -4.359375q-0.90625 -2.125 -0.90625 -4.125q0 -4.15625 3.15625 -6.796877q3.15625 -2.640625 9.875 -2.640625z" fill-rule="nonzero"></path></g></svg>

